<svg width="96" height="96" viewBox="0 0 221 484" fill="none" xmlns="http://www.w3.org/2000/svg">
<g filter="url(#filter0_dddd_3_9)">
<path d="M134.153 185.097H86.4008V180.321C88.9666 180.321 91.0572 179.848 92.6727 178.901C94.3357 177.869 95.6186 176.535 96.5213 174.9C97.4716 173.265 98.1131 171.372 98.4457 169.221C98.7783 167.069 98.9446 164.789 98.9446 162.379V21.685C98.9446 19.964 98.7545 18.1139 98.3744 16.1347C98.0418 14.1555 97.4003 12.3484 96.4501 10.7134C95.5473 8.9924 94.2882 7.57254 92.6727 6.45387C91.0572 5.3352 88.9666 4.77587 86.4008 4.77587V0H134.153V4.77587C131.539 4.77587 129.401 5.29218 127.738 6.3248C126.123 7.27136 124.84 8.60516 123.889 10.3262C122.987 11.9612 122.369 13.8543 122.036 16.0056C121.704 18.1569 121.538 20.4373 121.538 22.8467V162.379C121.538 164.1 121.68 165.994 121.965 168.059C122.298 170.124 122.892 172.06 123.747 173.867C124.65 175.674 125.933 177.223 127.596 178.514C129.259 179.719 131.444 180.321 134.153 180.321V185.097Z" fill="url(#paint0_angular_3_9)" shape-rendering="crispEdges"/>
<path d="M134.153 185.097H86.4008V180.321C88.9666 180.321 91.0572 179.848 92.6727 178.901C94.3357 177.869 95.6186 176.535 96.5213 174.9C97.4716 173.265 98.1131 171.372 98.4457 169.221C98.7783 167.069 98.9446 164.789 98.9446 162.379V21.685C98.9446 19.964 98.7545 18.1139 98.3744 16.1347C98.0418 14.1555 97.4003 12.3484 96.4501 10.7134C95.5473 8.9924 94.2882 7.57254 92.6727 6.45387C91.0572 5.3352 88.9666 4.77587 86.4008 4.77587V0H134.153V4.77587C131.539 4.77587 129.401 5.29218 127.738 6.3248C126.123 7.27136 124.84 8.60516 123.889 10.3262C122.987 11.9612 122.369 13.8543 122.036 16.0056C121.704 18.1569 121.538 20.4373 121.538 22.8467V162.379C121.538 164.1 121.68 165.994 121.965 168.059C122.298 170.124 122.892 172.06 123.747 173.867C124.65 175.674 125.933 177.223 127.596 178.514C129.259 179.719 131.444 180.321 134.153 180.321V185.097Z" fill="url(#paint1_angular_3_9)" fill-opacity="0.2" shape-rendering="crispEdges"/>
<path d="M134.153 185.097H86.4008V180.321C88.9666 180.321 91.0572 179.848 92.6727 178.901C94.3357 177.869 95.6186 176.535 96.5213 174.9C97.4716 173.265 98.1131 171.372 98.4457 169.221C98.7783 167.069 98.9446 164.789 98.9446 162.379V21.685C98.9446 19.964 98.7545 18.1139 98.3744 16.1347C98.0418 14.1555 97.4003 12.3484 96.4501 10.7134C95.5473 8.9924 94.2882 7.57254 92.6727 6.45387C91.0572 5.3352 88.9666 4.77587 86.4008 4.77587V0H134.153V4.77587C131.539 4.77587 129.401 5.29218 127.738 6.3248C126.123 7.27136 124.84 8.60516 123.889 10.3262C122.987 11.9612 122.369 13.8543 122.036 16.0056C121.704 18.1569 121.538 20.4373 121.538 22.8467V162.379C121.538 164.1 121.68 165.994 121.965 168.059C122.298 170.124 122.892 172.06 123.747 173.867C124.65 175.674 125.933 177.223 127.596 178.514C129.259 179.719 131.444 180.321 134.153 180.321V185.097Z" fill="black" fill-opacity="0.2" shape-rendering="crispEdges"/>
<path d="M134.153 185.097H86.4008V180.321C88.9666 180.321 91.0572 179.848 92.6727 178.901C94.3357 177.869 95.6186 176.535 96.5213 174.9C97.4716 173.265 98.1131 171.372 98.4457 169.221C98.7783 167.069 98.9446 164.789 98.9446 162.379V21.685C98.9446 19.964 98.7545 18.1139 98.3744 16.1347C98.0418 14.1555 97.4003 12.3484 96.4501 10.7134C95.5473 8.9924 94.2882 7.57254 92.6727 6.45387C91.0572 5.3352 88.9666 4.77587 86.4008 4.77587V0H134.153V4.77587C131.539 4.77587 129.401 5.29218 127.738 6.3248C126.123 7.27136 124.84 8.60516 123.889 10.3262C122.987 11.9612 122.369 13.8543 122.036 16.0056C121.704 18.1569 121.538 20.4373 121.538 22.8467V162.379C121.538 164.1 121.68 165.994 121.965 168.059C122.298 170.124 122.892 172.06 123.747 173.867C124.65 175.674 125.933 177.223 127.596 178.514C129.259 179.719 131.444 180.321 134.153 180.321V185.097Z" fill="black" fill-opacity="0.2" shape-rendering="crispEdges"/>
<path d="M134.153 185.097H86.4008V180.321C88.9666 180.321 91.0572 179.848 92.6727 178.901C94.3357 177.869 95.6186 176.535 96.5213 174.9C97.4716 173.265 98.1131 171.372 98.4457 169.221C98.7783 167.069 98.9446 164.789 98.9446 162.379V21.685C98.9446 19.964 98.7545 18.1139 98.3744 16.1347C98.0418 14.1555 97.4003 12.3484 96.4501 10.7134C95.5473 8.9924 94.2882 7.57254 92.6727 6.45387C91.0572 5.3352 88.9666 4.77587 86.4008 4.77587V0H134.153V4.77587C131.539 4.77587 129.401 5.29218 127.738 6.3248C126.123 7.27136 124.84 8.60516 123.889 10.3262C122.987 11.9612 122.369 13.8543 122.036 16.0056C121.704 18.1569 121.538 20.4373 121.538 22.8467V162.379C121.538 164.1 121.68 165.994 121.965 168.059C122.298 170.124 122.892 172.06 123.747 173.867C124.65 175.674 125.933 177.223 127.596 178.514C129.259 179.719 131.444 180.321 134.153 180.321V185.097Z" fill="black" fill-opacity="0.2" shape-rendering="crispEdges"/>
<path d="M134.153 185.097H86.4008V180.321C88.9666 180.321 91.0572 179.848 92.6727 178.901C94.3357 177.869 95.6186 176.535 96.5213 174.9C97.4716 173.265 98.1131 171.372 98.4457 169.221C98.7783 167.069 98.9446 164.789 98.9446 162.379V21.685C98.9446 19.964 98.7545 18.1139 98.3744 16.1347C98.0418 14.1555 97.4003 12.3484 96.4501 10.7134C95.5473 8.9924 94.2882 7.57254 92.6727 6.45387C91.0572 5.3352 88.9666 4.77587 86.4008 4.77587V0H134.153V4.77587C131.539 4.77587 129.401 5.29218 127.738 6.3248C126.123 7.27136 124.84 8.60516 123.889 10.3262C122.987 11.9612 122.369 13.8543 122.036 16.0056C121.704 18.1569 121.538 20.4373 121.538 22.8467V162.379C121.538 164.1 121.68 165.994 121.965 168.059C122.298 170.124 122.892 172.06 123.747 173.867C124.65 175.674 125.933 177.223 127.596 178.514C129.259 179.719 131.444 180.321 134.153 180.321V185.097Z" fill="black" fill-opacity="0.2" shape-rendering="crispEdges"/>
</g>
<path fill-rule="evenodd" clip-rule="evenodd" d="M121.965 168.059C121.68 165.994 121.538 164.1 121.538 162.379V22.8467C121.538 20.4373 121.704 18.1569 122.036 16.0056C122.369 13.8543 122.987 11.9612 123.889 10.3262C124.84 8.60516 126.123 7.27136 127.738 6.3248C129.401 5.29218 131.539 4.77587 134.153 4.77587V0H86.4008V4.77587C88.9666 4.77587 91.0572 5.3352 92.6727 6.45387C94.2882 7.57254 95.5473 8.9924 96.4501 10.7134C97.4003 12.3484 98.0418 14.1555 98.3744 16.1347C98.7545 18.1139 98.9446 19.964 98.9446 21.685V162.379C98.9446 164.789 98.7783 167.069 98.4457 169.221C98.1131 171.372 97.4716 173.265 96.5213 174.9C95.6186 176.535 94.3357 177.869 92.6727 178.901C91.0572 179.848 88.9666 180.321 86.4008 180.321V185.097H134.153V180.321C131.444 180.321 129.259 179.719 127.596 178.514C125.933 177.223 124.65 175.674 123.747 173.867C122.892 172.06 122.298 170.124 121.965 168.059ZM132.936 182.483C130.671 182.325 128.728 181.707 127.144 180.559L127.13 180.55L127.116 180.539C125.345 179.164 123.898 177.454 122.845 175.345L122.834 175.323L122.823 175.301C121.868 173.282 121.183 171.072 120.797 168.676L120.791 168.635L120.785 168.593C120.481 166.393 120.321 164.317 120.321 162.379V22.8467C120.321 20.2522 120.5 17.7708 120.865 15.4116C121.256 12.883 121.984 10.6612 123.029 8.76849C124.145 6.74853 125.606 5.26091 127.354 4.23481C128.904 3.27485 130.774 2.75033 132.936 2.61103V2.20292H87.6172V2.61564C89.7453 2.76948 91.5858 3.34275 93.1071 4.39623C94.8285 5.58826 96.2514 7.15193 97.3102 9.15499C98.372 10.9928 99.1294 13.0905 99.5309 15.4509C99.9414 17.5997 100.161 19.683 100.161 21.685V162.379C100.161 164.974 99.9817 167.455 99.617 169.815C99.2228 172.364 98.4633 174.591 97.3703 176.478C96.2978 178.412 94.837 179.886 93.0672 180.985L93.0572 180.991L93.0471 180.997C91.5466 181.876 89.728 182.358 87.6172 182.488V182.894H132.936V182.483Z" fill="#3D3C3C"/>
<g filter="url(#filter1_ddd_3_9)">
<path d="M92.8366 123.344H217C215.693 128.077 214.681 133.165 213.962 138.608C213.309 143.932 212.819 148.902 212.492 153.516C212.165 158.131 211.969 162.035 211.904 165.23C211.839 168.425 211.806 170.259 211.806 170.732L208.376 171.797C207.462 163.869 205.796 157.421 203.378 152.451C200.961 147.482 198.119 143.636 194.852 140.915C191.586 138.075 188.091 136.182 184.367 135.236C180.643 134.171 177.017 133.638 173.489 133.638H141.15V263.022H204.358C202.986 267.992 201.941 273.198 201.222 278.641C200.504 284.083 199.981 289.171 199.654 293.904C199.262 299.465 199.034 304.908 198.968 310.232L195.734 311.297C195.016 304.908 194.166 299.583 193.187 295.324C192.207 290.946 190.867 287.337 189.169 284.497C187.535 281.658 185.445 279.469 182.897 277.931C180.414 276.392 177.278 275.268 173.489 274.558C169.7 273.849 165.159 273.434 159.867 273.316C154.575 273.198 148.336 273.139 141.15 273.139V397.908C141.15 400.511 140.594 403.41 139.484 406.605C138.373 409.918 136.936 413.527 135.172 417.431C133.408 421.336 131.382 425.477 129.096 429.855C126.875 434.351 124.621 439.025 122.334 443.876C120.047 448.845 117.826 453.992 115.67 459.317C113.514 464.759 111.652 470.321 110.084 476V153.161C110.084 150.795 109.823 148.251 109.3 145.529C108.843 142.808 107.961 140.323 106.654 138.075C105.413 135.709 103.682 133.757 101.46 132.218C99.2391 130.68 96.3645 129.911 92.8366 129.911V123.344Z" fill="url(#paint2_linear_3_9)" shape-rendering="crispEdges"/>
</g>
<g filter="url(#filter2_ddd_3_9)">
<path fill-rule="evenodd" clip-rule="evenodd" d="M213.962 138.608C214.57 134 215.39 129.646 216.419 125.547C216.606 124.805 216.8 124.07 217 123.344H92.8366V129.911C96.3645 129.911 99.2391 130.68 101.46 132.218C103.682 133.757 105.413 135.709 106.654 138.075C107.961 140.323 108.843 142.808 109.3 145.529C109.823 148.251 110.084 150.795 110.084 153.161V476C110.472 474.596 110.877 473.2 111.301 471.811C112.59 467.579 114.047 463.414 115.67 459.317C117.826 453.992 120.047 448.845 122.334 443.876C124.621 439.025 126.875 434.351 129.096 429.855C131.382 425.477 133.408 421.336 135.172 417.431C136.936 413.527 138.373 409.918 139.484 406.605C140.594 403.41 141.15 400.511 141.15 397.908V273.139C141.558 273.139 141.964 273.139 142.366 273.139C149.042 273.146 154.876 273.205 159.867 273.316C165.159 273.434 169.7 273.849 173.489 274.558C177.278 275.268 180.414 276.392 182.897 277.931C185.445 279.469 187.535 281.658 189.169 284.497C190.867 287.337 192.207 290.946 193.187 295.324C194.166 299.583 195.016 304.908 195.734 311.297L198.968 310.232C199.034 304.908 199.262 299.465 199.654 293.904C199.981 289.171 200.504 284.083 201.222 278.641C201.836 273.996 202.687 269.525 203.775 265.225C203.963 264.486 204.157 263.751 204.358 263.022H141.15V133.638H173.489C177.017 133.638 180.643 134.171 184.367 135.236C188.091 136.182 191.586 138.075 194.852 140.915C198.119 143.636 200.961 147.482 203.378 152.451C205.796 157.421 207.462 163.869 208.376 171.797L211.806 170.732C211.806 170.259 211.839 168.425 211.904 165.23C211.969 162.035 212.165 158.131 212.492 153.516C212.819 148.902 213.309 143.932 213.962 138.608ZM210.616 168.866C210.633 167.939 210.657 166.696 210.689 165.148C210.756 161.865 210.956 157.89 211.286 153.236C211.618 148.545 212.115 143.509 212.775 138.13L212.777 138.113L212.779 138.095C213.36 133.696 214.129 129.512 215.087 125.547H94.053V127.739C97.1344 127.899 99.7605 128.683 101.895 130.161C104.222 131.772 106.117 133.868 107.515 136.517C108.932 138.967 109.931 141.743 110.457 144.846C111.01 147.737 111.301 150.514 111.301 153.161V467.381C112.336 464.225 113.463 461.109 114.682 458.033L114.685 458.023L114.689 458.014C116.86 452.654 119.097 447.471 121.4 442.466L121.404 442.456L121.409 442.446C123.701 437.582 125.961 432.896 128.189 428.386L128.201 428.363L128.212 428.341C130.483 423.994 132.488 419.893 134.23 416.036C135.968 412.189 137.37 408.665 138.444 405.461L138.449 405.446L138.454 405.431C139.495 402.438 139.933 399.949 139.933 397.908V270.936H141.15C148.339 270.936 154.584 270.995 159.882 271.113C165.198 271.232 169.777 271.648 173.614 272.367C177.455 273.087 180.688 274.235 183.286 275.843C185.967 277.463 188.219 279.798 190.002 282.894C191.843 285.976 193.275 289.858 194.312 294.486C195.218 298.427 196.005 303.188 196.68 308.747L197.78 308.384C197.872 303.556 198.095 298.636 198.448 293.627C198.781 288.803 199.312 283.635 200.039 278.128C200.627 273.675 201.428 269.373 202.441 265.225H139.933V131.435H173.489C177.081 131.435 180.767 131.977 184.546 133.057C188.382 134.033 191.992 135.987 195.37 138.921C198.79 141.773 201.766 145.803 204.291 150.995C206.655 155.854 208.315 161.975 209.307 169.273L210.616 168.866Z" fill="#3D3C3C"/>
</g>
<g filter="url(#filter3_ddd_3_9)">
<path d="M128.163 123.344H4C5.30664 128.077 6.31928 133.165 7.03793 138.608C7.69125 143.932 8.18124 148.902 8.5079 153.516C8.83456 158.131 9.03056 162.035 9.09589 165.23C9.16122 168.425 9.19389 170.259 9.19389 170.732L12.6238 171.797C13.5385 163.869 15.2044 157.421 17.6217 152.451C20.039 147.482 22.8809 143.636 26.1475 140.915C29.4141 138.075 32.9094 136.182 36.6333 135.236C40.3572 134.171 43.9832 133.638 47.5111 133.638H79.8504V263.022H16.6417C18.0137 267.992 19.059 273.198 19.7777 278.641C20.4963 284.083 21.019 289.171 21.3456 293.904C21.7376 299.465 21.9663 304.908 22.0316 310.232L25.2656 311.297C25.9842 304.908 26.8335 299.583 27.8135 295.324C28.7935 290.946 30.1328 287.337 31.8314 284.497C33.4647 281.658 35.5553 279.469 38.1033 277.931C40.5859 276.392 43.7218 275.268 47.5111 274.558C51.3003 273.849 55.8409 273.434 61.1328 273.316C66.4247 273.198 72.6639 273.139 79.8504 273.139V397.908C79.8504 400.511 80.4057 403.41 81.5164 406.605C82.627 409.918 84.0643 413.527 85.8283 417.431C87.5922 421.336 89.6175 425.477 91.9042 429.855C94.1254 434.351 96.3794 439.025 98.666 443.876C100.953 448.845 103.174 453.992 105.33 459.317C107.486 464.759 109.348 470.321 110.916 476V153.161C110.916 150.795 111.177 148.251 111.7 145.529C112.157 142.808 113.039 140.323 114.346 138.075C115.587 135.709 117.318 133.757 119.54 132.218C121.761 130.68 124.635 129.911 128.163 129.911V123.344Z" fill="url(#paint3_linear_3_9)" shape-rendering="crispEdges"/>
<path d="M128.163 123.344H4C5.30664 128.077 6.31928 133.165 7.03793 138.608C7.69125 143.932 8.18124 148.902 8.5079 153.516C8.83456 158.131 9.03056 162.035 9.09589 165.23C9.16122 168.425 9.19389 170.259 9.19389 170.732L12.6238 171.797C13.5385 163.869 15.2044 157.421 17.6217 152.451C20.039 147.482 22.8809 143.636 26.1475 140.915C29.4141 138.075 32.9094 136.182 36.6333 135.236C40.3572 134.171 43.9832 133.638 47.5111 133.638H79.8504V263.022H16.6417C18.0137 267.992 19.059 273.198 19.7777 278.641C20.4963 284.083 21.019 289.171 21.3456 293.904C21.7376 299.465 21.9663 304.908 22.0316 310.232L25.2656 311.297C25.9842 304.908 26.8335 299.583 27.8135 295.324C28.7935 290.946 30.1328 287.337 31.8314 284.497C33.4647 281.658 35.5553 279.469 38.1033 277.931C40.5859 276.392 43.7218 275.268 47.5111 274.558C51.3003 273.849 55.8409 273.434 61.1328 273.316C66.4247 273.198 72.6639 273.139 79.8504 273.139V397.908C79.8504 400.511 80.4057 403.41 81.5164 406.605C82.627 409.918 84.0643 413.527 85.8283 417.431C87.5922 421.336 89.6175 425.477 91.9042 429.855C94.1254 434.351 96.3794 439.025 98.666 443.876C100.953 448.845 103.174 453.992 105.33 459.317C107.486 464.759 109.348 470.321 110.916 476V153.161C110.916 150.795 111.177 148.251 111.7 145.529C112.157 142.808 113.039 140.323 114.346 138.075C115.587 135.709 117.318 133.757 119.54 132.218C121.761 130.68 124.635 129.911 128.163 129.911V123.344Z" fill="#631F1F" fill-opacity="0.2" shape-rendering="crispEdges"/>
</g>
<g filter="url(#filter4_ddd_3_9)">
<path fill-rule="evenodd" clip-rule="evenodd" d="M7.03793 138.608C6.42951 134 5.61037 129.646 4.58051 125.547C4.39393 124.805 4.20042 124.07 4 123.344H128.163V129.911C124.635 129.911 121.761 130.68 119.54 132.218C117.318 133.757 115.587 135.709 114.346 138.075C113.039 140.323 112.157 142.808 111.7 145.529C111.177 148.251 110.916 150.795 110.916 153.161V476C110.528 474.596 110.123 473.2 109.699 471.811C108.41 467.579 106.953 463.414 105.33 459.317C103.174 453.992 100.953 448.845 98.666 443.876C96.3794 439.025 94.1254 434.351 91.9042 429.855C89.6175 425.477 87.5922 421.336 85.8283 417.431C84.0643 413.527 82.627 409.918 81.5164 406.605C80.4057 403.41 79.8504 400.511 79.8504 397.908V273.139C79.4419 273.139 79.0364 273.139 78.634 273.139C71.9576 273.146 66.1239 273.205 61.1328 273.316C55.8409 273.434 51.3003 273.849 47.5111 274.558C43.7218 275.268 40.5859 276.392 38.1033 277.931C35.5553 279.469 33.4647 281.658 31.8314 284.497C30.1328 287.337 28.7935 290.946 27.8135 295.324C26.8335 299.583 25.9842 304.908 25.2656 311.297L22.0316 310.232C21.9663 304.908 21.7376 299.465 21.3456 293.904C21.019 289.171 20.4963 284.083 19.7777 278.641C19.1645 273.996 18.3134 269.525 17.2246 265.225C17.0373 264.486 16.8431 263.751 16.6417 263.022H79.8504V133.638H47.5111C43.9832 133.638 40.3572 134.171 36.6333 135.236C32.9094 136.182 29.4141 138.075 26.1475 140.915C22.8809 143.636 20.039 147.482 17.6217 152.451C15.2044 157.421 13.5385 163.869 12.6238 171.797L9.19389 170.732C9.19389 170.259 9.16122 168.425 9.09589 165.23C9.03056 162.035 8.83456 158.131 8.5079 153.516C8.18124 148.902 7.69125 143.932 7.03793 138.608ZM10.384 168.866C10.3674 167.939 10.3431 166.696 10.3114 165.148C10.2443 161.865 10.0438 157.89 9.71439 153.236C9.38231 148.545 8.88534 143.509 8.22533 138.13L8.22322 138.113L8.22094 138.095C7.64001 133.696 6.87096 129.512 5.91252 125.547H126.947V127.739C123.866 127.899 121.24 128.683 119.105 130.161C116.778 131.772 114.883 133.868 113.485 136.517C112.068 138.967 111.069 141.743 110.543 144.846C109.99 147.737 109.699 150.514 109.699 153.161V467.381C108.664 464.225 107.537 461.109 106.318 458.033L106.315 458.023L106.311 458.014C104.14 452.654 101.903 447.471 99.6004 442.466L99.5958 442.456L99.5911 442.446C97.2987 437.582 95.0386 432.896 92.8106 428.386L92.7994 428.363L92.7878 428.341C90.5175 423.994 88.5121 419.893 86.7697 416.036C85.0316 412.189 83.63 408.665 82.5561 405.461L82.551 405.446L82.5457 405.431C81.5052 402.438 81.0668 399.949 81.0668 397.908V270.936H79.8504C72.6605 270.936 66.4161 270.995 61.1178 271.113C55.8021 271.232 51.2227 271.648 47.3859 272.367C43.5446 273.087 40.3124 274.235 37.7141 275.843C35.0328 277.463 32.7807 279.798 30.9975 282.894C29.1568 285.976 27.7253 289.858 26.6885 294.486C25.7824 298.427 24.9955 303.188 24.3204 308.747L23.2196 308.384C23.128 303.556 22.9054 298.636 22.5524 293.627C22.2193 288.803 21.6878 283.635 20.9607 278.128C20.3727 273.675 19.572 269.373 18.5587 265.225H81.0668V131.435H47.5111C43.9188 131.435 40.2329 131.977 36.4541 133.057C32.6181 134.033 29.0082 135.987 25.6301 138.921C22.2103 141.773 19.2344 145.803 16.709 150.995C14.3453 155.854 12.685 161.975 11.6933 169.273L10.384 168.866Z" fill="url(#paint4_angular_3_9)" shape-rendering="crispEdges"/>
</g>
<defs>
<filter id="filter0_dddd_3_9" x="82.4008" y="0" width="55.7517" height="193.097" filterUnits="userSpaceOnUse" color-interpolation-filters="sRGB">
<feFlood flood-opacity="0" result="BackgroundImageFix"/>
<feColorMatrix in="SourceAlpha" type="matrix" values="0 0 0 0 0 0 0 0 0 0 0 0 0 0 0 0 0 0 127 0" result="hardAlpha"/>
<feOffset dy="4"/>
<feGaussianBlur stdDeviation="2"/>
<feComposite in2="hardAlpha" operator="out"/>
<feColorMatrix type="matrix" values="0 0 0 0 0 0 0 0 0 0 0 0 0 0 0 0 0 0 0.25 0"/>
<feBlend mode="normal" in2="BackgroundImageFix" result="effect1_dropShadow_3_9"/>
<feColorMatrix in="SourceAlpha" type="matrix" values="0 0 0 0 0 0 0 0 0 0 0 0 0 0 0 0 0 0 127 0" result="hardAlpha"/>
<feOffset dy="4"/>
<feGaussianBlur stdDeviation="2"/>
<feComposite in2="hardAlpha" operator="out"/>
<feColorMatrix type="matrix" values="0 0 0 0 0 0 0 0 0 0 0 0 0 0 0 0 0 0 0.25 0"/>
<feBlend mode="normal" in2="effect1_dropShadow_3_9" result="effect2_dropShadow_3_9"/>
<feColorMatrix in="SourceAlpha" type="matrix" values="0 0 0 0 0 0 0 0 0 0 0 0 0 0 0 0 0 0 127 0" result="hardAlpha"/>
<feOffset dy="4"/>
<feGaussianBlur stdDeviation="2"/>
<feComposite in2="hardAlpha" operator="out"/>
<feColorMatrix type="matrix" values="0 0 0 0 0 0 0 0 0 0 0 0 0 0 0 0 0 0 0.25 0"/>
<feBlend mode="normal" in2="effect2_dropShadow_3_9" result="effect3_dropShadow_3_9"/>
<feColorMatrix in="SourceAlpha" type="matrix" values="0 0 0 0 0 0 0 0 0 0 0 0 0 0 0 0 0 0 127 0" result="hardAlpha"/>
<feOffset dy="4"/>
<feGaussianBlur stdDeviation="2"/>
<feComposite in2="hardAlpha" operator="out"/>
<feColorMatrix type="matrix" values="0 0 0 0 0 0 0 0 0 0 0 0 0 0 0 0 0 0 0.25 0"/>
<feBlend mode="normal" in2="effect3_dropShadow_3_9" result="effect4_dropShadow_3_9"/>
<feBlend mode="normal" in="SourceGraphic" in2="effect4_dropShadow_3_9" result="shape"/>
</filter>
<filter id="filter1_ddd_3_9" x="88.8366" y="123.344" width="132.163" height="360.656" filterUnits="userSpaceOnUse" color-interpolation-filters="sRGB">
<feFlood flood-opacity="0" result="BackgroundImageFix"/>
<feColorMatrix in="SourceAlpha" type="matrix" values="0 0 0 0 0 0 0 0 0 0 0 0 0 0 0 0 0 0 127 0" result="hardAlpha"/>
<feOffset dy="4"/>
<feGaussianBlur stdDeviation="2"/>
<feComposite in2="hardAlpha" operator="out"/>
<feColorMatrix type="matrix" values="0 0 0 0 0 0 0 0 0 0 0 0 0 0 0 0 0 0 0.25 0"/>
<feBlend mode="normal" in2="BackgroundImageFix" result="effect1_dropShadow_3_9"/>
<feColorMatrix in="SourceAlpha" type="matrix" values="0 0 0 0 0 0 0 0 0 0 0 0 0 0 0 0 0 0 127 0" result="hardAlpha"/>
<feOffset dy="4"/>
<feGaussianBlur stdDeviation="2"/>
<feComposite in2="hardAlpha" operator="out"/>
<feColorMatrix type="matrix" values="0 0 0 0 0 0 0 0 0 0 0 0 0 0 0 0 0 0 0.25 0"/>
<feBlend mode="normal" in2="effect1_dropShadow_3_9" result="effect2_dropShadow_3_9"/>
<feColorMatrix in="SourceAlpha" type="matrix" values="0 0 0 0 0 0 0 0 0 0 0 0 0 0 0 0 0 0 127 0" result="hardAlpha"/>
<feOffset dy="4"/>
<feGaussianBlur stdDeviation="2"/>
<feComposite in2="hardAlpha" operator="out"/>
<feColorMatrix type="matrix" values="0 0 0 0 0 0 0 0 0 0 0 0 0 0 0 0 0 0 0.25 0"/>
<feBlend mode="normal" in2="effect2_dropShadow_3_9" result="effect3_dropShadow_3_9"/>
<feBlend mode="normal" in="SourceGraphic" in2="effect3_dropShadow_3_9" result="shape"/>
</filter>
<filter id="filter2_ddd_3_9" x="88.8366" y="123.344" width="132.163" height="360.656" filterUnits="userSpaceOnUse" color-interpolation-filters="sRGB">
<feFlood flood-opacity="0" result="BackgroundImageFix"/>
<feColorMatrix in="SourceAlpha" type="matrix" values="0 0 0 0 0 0 0 0 0 0 0 0 0 0 0 0 0 0 127 0" result="hardAlpha"/>
<feOffset dy="4"/>
<feGaussianBlur stdDeviation="2"/>
<feComposite in2="hardAlpha" operator="out"/>
<feColorMatrix type="matrix" values="0 0 0 0 0 0 0 0 0 0 0 0 0 0 0 0 0 0 0.25 0"/>
<feBlend mode="normal" in2="BackgroundImageFix" result="effect1_dropShadow_3_9"/>
<feColorMatrix in="SourceAlpha" type="matrix" values="0 0 0 0 0 0 0 0 0 0 0 0 0 0 0 0 0 0 127 0" result="hardAlpha"/>
<feOffset dy="4"/>
<feGaussianBlur stdDeviation="2"/>
<feComposite in2="hardAlpha" operator="out"/>
<feColorMatrix type="matrix" values="0 0 0 0 0 0 0 0 0 0 0 0 0 0 0 0 0 0 0.25 0"/>
<feBlend mode="normal" in2="effect1_dropShadow_3_9" result="effect2_dropShadow_3_9"/>
<feColorMatrix in="SourceAlpha" type="matrix" values="0 0 0 0 0 0 0 0 0 0 0 0 0 0 0 0 0 0 127 0" result="hardAlpha"/>
<feOffset dy="4"/>
<feGaussianBlur stdDeviation="2"/>
<feComposite in2="hardAlpha" operator="out"/>
<feColorMatrix type="matrix" values="0 0 0 0 0 0 0 0 0 0 0 0 0 0 0 0 0 0 0.25 0"/>
<feBlend mode="normal" in2="effect2_dropShadow_3_9" result="effect3_dropShadow_3_9"/>
<feBlend mode="normal" in="SourceGraphic" in2="effect3_dropShadow_3_9" result="shape"/>
</filter>
<filter id="filter3_ddd_3_9" x="0" y="123.344" width="132.163" height="360.656" filterUnits="userSpaceOnUse" color-interpolation-filters="sRGB">
<feFlood flood-opacity="0" result="BackgroundImageFix"/>
<feColorMatrix in="SourceAlpha" type="matrix" values="0 0 0 0 0 0 0 0 0 0 0 0 0 0 0 0 0 0 127 0" result="hardAlpha"/>
<feOffset dy="4"/>
<feGaussianBlur stdDeviation="2"/>
<feComposite in2="hardAlpha" operator="out"/>
<feColorMatrix type="matrix" values="0 0 0 0 0 0 0 0 0 0 0 0 0 0 0 0 0 0 0.25 0"/>
<feBlend mode="normal" in2="BackgroundImageFix" result="effect1_dropShadow_3_9"/>
<feColorMatrix in="SourceAlpha" type="matrix" values="0 0 0 0 0 0 0 0 0 0 0 0 0 0 0 0 0 0 127 0" result="hardAlpha"/>
<feOffset dy="4"/>
<feGaussianBlur stdDeviation="2"/>
<feComposite in2="hardAlpha" operator="out"/>
<feColorMatrix type="matrix" values="0 0 0 0 0 0 0 0 0 0 0 0 0 0 0 0 0 0 0.25 0"/>
<feBlend mode="normal" in2="effect1_dropShadow_3_9" result="effect2_dropShadow_3_9"/>
<feColorMatrix in="SourceAlpha" type="matrix" values="0 0 0 0 0 0 0 0 0 0 0 0 0 0 0 0 0 0 127 0" result="hardAlpha"/>
<feOffset dy="4"/>
<feGaussianBlur stdDeviation="2"/>
<feComposite in2="hardAlpha" operator="out"/>
<feColorMatrix type="matrix" values="0 0 0 0 0 0 0 0 0 0 0 0 0 0 0 0 0 0 0.25 0"/>
<feBlend mode="normal" in2="effect2_dropShadow_3_9" result="effect3_dropShadow_3_9"/>
<feBlend mode="normal" in="SourceGraphic" in2="effect3_dropShadow_3_9" result="shape"/>
</filter>
<filter id="filter4_ddd_3_9" x="0" y="123.344" width="132.163" height="360.656" filterUnits="userSpaceOnUse" color-interpolation-filters="sRGB">
<feFlood flood-opacity="0" result="BackgroundImageFix"/>
<feColorMatrix in="SourceAlpha" type="matrix" values="0 0 0 0 0 0 0 0 0 0 0 0 0 0 0 0 0 0 127 0" result="hardAlpha"/>
<feOffset dy="4"/>
<feGaussianBlur stdDeviation="2"/>
<feComposite in2="hardAlpha" operator="out"/>
<feColorMatrix type="matrix" values="0 0 0 0 0 0 0 0 0 0 0 0 0 0 0 0 0 0 0.25 0"/>
<feBlend mode="normal" in2="BackgroundImageFix" result="effect1_dropShadow_3_9"/>
<feColorMatrix in="SourceAlpha" type="matrix" values="0 0 0 0 0 0 0 0 0 0 0 0 0 0 0 0 0 0 127 0" result="hardAlpha"/>
<feOffset dy="4"/>
<feGaussianBlur stdDeviation="2"/>
<feComposite in2="hardAlpha" operator="out"/>
<feColorMatrix type="matrix" values="0 0 0 0 0 0 0 0 0 0 0 0 0 0 0 0 0 0 0.25 0"/>
<feBlend mode="normal" in2="effect1_dropShadow_3_9" result="effect2_dropShadow_3_9"/>
<feColorMatrix in="SourceAlpha" type="matrix" values="0 0 0 0 0 0 0 0 0 0 0 0 0 0 0 0 0 0 127 0" result="hardAlpha"/>
<feOffset dy="4"/>
<feGaussianBlur stdDeviation="2"/>
<feComposite in2="hardAlpha" operator="out"/>
<feColorMatrix type="matrix" values="0 0 0 0 0 0 0 0 0 0 0 0 0 0 0 0 0 0 0.25 0"/>
<feBlend mode="normal" in2="effect2_dropShadow_3_9" result="effect3_dropShadow_3_9"/>
<feBlend mode="normal" in="SourceGraphic" in2="effect3_dropShadow_3_9" result="shape"/>
</filter>
<radialGradient id="paint0_angular_3_9" cx="0" cy="0" r="1" gradientUnits="userSpaceOnUse" gradientTransform="translate(110.5 98.0816) rotate(90) scale(178.611 30.5851)">
<stop stop-color="#5A1E1E"/>
<stop offset="1" stop-color="#6A6A6A" stop-opacity="0"/>
</radialGradient>
<radialGradient id="paint1_angular_3_9" cx="0" cy="0" r="1" gradientUnits="userSpaceOnUse" gradientTransform="translate(110.5 -37.9488) rotate(90) scale(310.061 53.0946)">
<stop offset="0.439459"/>
<stop offset="1" stop-opacity="0"/>
</radialGradient>
<linearGradient id="paint2_linear_3_9" x1="153.377" y1="19.8779" x2="153.377" y2="497.912" gradientUnits="userSpaceOnUse">
<stop offset="0.402795" stop-color="#634545"/>
<stop offset="1" stop-color="white" stop-opacity="0"/>
</linearGradient>
<linearGradient id="paint3_linear_3_9" x1="57.5882" y1="19.8779" x2="57.5882" y2="497.912" gradientUnits="userSpaceOnUse">
<stop offset="0.436214"/>
<stop offset="1" stop-opacity="0"/>
</linearGradient>
<radialGradient id="paint4_angular_3_9" cx="0" cy="0" r="1" gradientUnits="userSpaceOnUse" gradientTransform="translate(92.5 287.5) rotate(90) scale(225.5 130.752)">
<stop stop-color="#7C7C7C"/>
<stop offset="0.0729608" stop-color="#7C7C7C" stop-opacity="0"/>
</radialGradient>
</defs>
</svg>
