<svg width="96" height="96" viewBox="0 0 319 501" fill="none" xmlns="http://www.w3.org/2000/svg">
<ellipse cx="159.5" cy="250.5" rx="159.5" ry="250.5" fill="url(#paint0_diamond_11_3)"/>
<g filter="url(#filter0_dddd_11_3)">
<path d="M182.153 200.097H134.401V195.321C136.967 195.321 139.057 194.848 140.673 193.901C142.336 192.869 143.619 191.535 144.521 189.9C145.472 188.265 146.113 186.372 146.446 184.221C146.778 182.069 146.945 179.789 146.945 177.379V36.685C146.945 34.964 146.754 33.1139 146.374 31.1347C146.042 29.1555 145.4 27.3484 144.45 25.7134C143.547 23.9924 142.288 22.5725 140.673 21.4539C139.057 20.3352 136.967 19.7759 134.401 19.7759V15H182.153V19.7759C179.539 19.7759 177.401 20.2922 175.738 21.3248C174.123 22.2714 172.84 23.6052 171.889 25.3262C170.987 26.9612 170.369 28.8543 170.036 31.0056C169.704 33.1569 169.538 35.4373 169.538 37.8467V177.379C169.538 179.1 169.68 180.994 169.965 183.059C170.298 185.124 170.892 187.06 171.747 188.867C172.65 190.674 173.933 192.223 175.596 193.514C177.259 194.719 179.444 195.321 182.153 195.321V200.097Z" fill="url(#paint1_angular_11_3)" shape-rendering="crispEdges"/>
<path d="M182.153 200.097H134.401V195.321C136.967 195.321 139.057 194.848 140.673 193.901C142.336 192.869 143.619 191.535 144.521 189.9C145.472 188.265 146.113 186.372 146.446 184.221C146.778 182.069 146.945 179.789 146.945 177.379V36.685C146.945 34.964 146.754 33.1139 146.374 31.1347C146.042 29.1555 145.4 27.3484 144.45 25.7134C143.547 23.9924 142.288 22.5725 140.673 21.4539C139.057 20.3352 136.967 19.7759 134.401 19.7759V15H182.153V19.7759C179.539 19.7759 177.401 20.2922 175.738 21.3248C174.123 22.2714 172.84 23.6052 171.889 25.3262C170.987 26.9612 170.369 28.8543 170.036 31.0056C169.704 33.1569 169.538 35.4373 169.538 37.8467V177.379C169.538 179.1 169.68 180.994 169.965 183.059C170.298 185.124 170.892 187.06 171.747 188.867C172.65 190.674 173.933 192.223 175.596 193.514C177.259 194.719 179.444 195.321 182.153 195.321V200.097Z" fill="url(#paint2_angular_11_3)" fill-opacity="0.2" shape-rendering="crispEdges"/>
<path d="M182.153 200.097H134.401V195.321C136.967 195.321 139.057 194.848 140.673 193.901C142.336 192.869 143.619 191.535 144.521 189.9C145.472 188.265 146.113 186.372 146.446 184.221C146.778 182.069 146.945 179.789 146.945 177.379V36.685C146.945 34.964 146.754 33.1139 146.374 31.1347C146.042 29.1555 145.4 27.3484 144.45 25.7134C143.547 23.9924 142.288 22.5725 140.673 21.4539C139.057 20.3352 136.967 19.7759 134.401 19.7759V15H182.153V19.7759C179.539 19.7759 177.401 20.2922 175.738 21.3248C174.123 22.2714 172.84 23.6052 171.889 25.3262C170.987 26.9612 170.369 28.8543 170.036 31.0056C169.704 33.1569 169.538 35.4373 169.538 37.8467V177.379C169.538 179.1 169.68 180.994 169.965 183.059C170.298 185.124 170.892 187.06 171.747 188.867C172.65 190.674 173.933 192.223 175.596 193.514C177.259 194.719 179.444 195.321 182.153 195.321V200.097Z" fill="black" fill-opacity="0.2" shape-rendering="crispEdges"/>
<path d="M182.153 200.097H134.401V195.321C136.967 195.321 139.057 194.848 140.673 193.901C142.336 192.869 143.619 191.535 144.521 189.9C145.472 188.265 146.113 186.372 146.446 184.221C146.778 182.069 146.945 179.789 146.945 177.379V36.685C146.945 34.964 146.754 33.1139 146.374 31.1347C146.042 29.1555 145.4 27.3484 144.45 25.7134C143.547 23.9924 142.288 22.5725 140.673 21.4539C139.057 20.3352 136.967 19.7759 134.401 19.7759V15H182.153V19.7759C179.539 19.7759 177.401 20.2922 175.738 21.3248C174.123 22.2714 172.84 23.6052 171.889 25.3262C170.987 26.9612 170.369 28.8543 170.036 31.0056C169.704 33.1569 169.538 35.4373 169.538 37.8467V177.379C169.538 179.1 169.68 180.994 169.965 183.059C170.298 185.124 170.892 187.06 171.747 188.867C172.65 190.674 173.933 192.223 175.596 193.514C177.259 194.719 179.444 195.321 182.153 195.321V200.097Z" fill="black" fill-opacity="0.2" shape-rendering="crispEdges"/>
<path d="M182.153 200.097H134.401V195.321C136.967 195.321 139.057 194.848 140.673 193.901C142.336 192.869 143.619 191.535 144.521 189.9C145.472 188.265 146.113 186.372 146.446 184.221C146.778 182.069 146.945 179.789 146.945 177.379V36.685C146.945 34.964 146.754 33.1139 146.374 31.1347C146.042 29.1555 145.4 27.3484 144.45 25.7134C143.547 23.9924 142.288 22.5725 140.673 21.4539C139.057 20.3352 136.967 19.7759 134.401 19.7759V15H182.153V19.7759C179.539 19.7759 177.401 20.2922 175.738 21.3248C174.123 22.2714 172.84 23.6052 171.889 25.3262C170.987 26.9612 170.369 28.8543 170.036 31.0056C169.704 33.1569 169.538 35.4373 169.538 37.8467V177.379C169.538 179.1 169.68 180.994 169.965 183.059C170.298 185.124 170.892 187.06 171.747 188.867C172.65 190.674 173.933 192.223 175.596 193.514C177.259 194.719 179.444 195.321 182.153 195.321V200.097Z" fill="black" fill-opacity="0.2" shape-rendering="crispEdges"/>
<path d="M182.153 200.097H134.401V195.321C136.967 195.321 139.057 194.848 140.673 193.901C142.336 192.869 143.619 191.535 144.521 189.9C145.472 188.265 146.113 186.372 146.446 184.221C146.778 182.069 146.945 179.789 146.945 177.379V36.685C146.945 34.964 146.754 33.1139 146.374 31.1347C146.042 29.1555 145.4 27.3484 144.45 25.7134C143.547 23.9924 142.288 22.5725 140.673 21.4539C139.057 20.3352 136.967 19.7759 134.401 19.7759V15H182.153V19.7759C179.539 19.7759 177.401 20.2922 175.738 21.3248C174.123 22.2714 172.84 23.6052 171.889 25.3262C170.987 26.9612 170.369 28.8543 170.036 31.0056C169.704 33.1569 169.538 35.4373 169.538 37.8467V177.379C169.538 179.1 169.68 180.994 169.965 183.059C170.298 185.124 170.892 187.06 171.747 188.867C172.65 190.674 173.933 192.223 175.596 193.514C177.259 194.719 179.444 195.321 182.153 195.321V200.097Z" fill="black" fill-opacity="0.2" shape-rendering="crispEdges"/>
</g>
<path fill-rule="evenodd" clip-rule="evenodd" d="M169.965 183.059C169.68 180.994 169.538 179.1 169.538 177.379V37.8467C169.538 35.4373 169.704 33.1569 170.036 31.0056C170.369 28.8543 170.987 26.9612 171.889 25.3262C172.84 23.6052 174.123 22.2714 175.738 21.3248C177.401 20.2922 179.539 19.7759 182.153 19.7759V15H134.401V19.7759C136.967 19.7759 139.057 20.3352 140.673 21.4539C142.288 22.5725 143.547 23.9924 144.45 25.7134C145.4 27.3484 146.042 29.1555 146.374 31.1347C146.754 33.1139 146.945 34.964 146.945 36.685V177.379C146.945 179.789 146.778 182.069 146.446 184.221C146.113 186.372 145.472 188.265 144.521 189.9C143.619 191.535 142.336 192.869 140.673 193.901C139.057 194.848 136.967 195.321 134.401 195.321V200.097H182.153V195.321C179.444 195.321 177.259 194.719 175.596 193.514C173.933 192.223 172.65 190.674 171.747 188.867C170.892 187.06 170.298 185.124 169.965 183.059ZM180.936 197.483C178.671 197.325 176.728 196.707 175.144 195.559L175.13 195.55L175.116 195.539C173.345 194.164 171.898 192.454 170.845 190.345L170.834 190.323L170.823 190.301C169.868 188.282 169.183 186.072 168.797 183.676L168.791 183.635L168.785 183.593C168.481 181.393 168.321 179.317 168.321 177.379V37.8467C168.321 35.2522 168.5 32.7708 168.865 30.4116C169.256 27.883 169.984 25.6612 171.029 23.7685C172.145 21.7485 173.606 20.2609 175.354 19.2348C176.904 18.2749 178.774 17.7503 180.936 17.611V17.2029H135.617V17.6156C137.745 17.7695 139.586 18.3428 141.107 19.3962C142.829 20.5883 144.251 22.1519 145.31 24.155C146.372 25.9928 147.129 28.0905 147.531 30.4509C147.941 32.5997 148.161 34.683 148.161 36.685V177.379C148.161 179.974 147.982 182.455 147.617 184.815C147.223 187.364 146.463 189.591 145.37 191.478C144.298 193.412 142.837 194.886 141.067 195.985L141.057 195.991L141.047 195.997C139.547 196.876 137.728 197.358 135.617 197.488V197.894H180.936V197.483Z" fill="#3D3C3C"/>
<g filter="url(#filter1_ddd_11_3)">
<path d="M140.837 138.344H265C263.693 143.077 262.681 148.165 261.962 153.608C261.309 158.932 260.819 163.902 260.492 168.516C260.165 173.131 259.969 177.035 259.904 180.23C259.839 183.425 259.806 185.259 259.806 185.732L256.376 186.797C255.462 178.869 253.796 172.421 251.378 167.451C248.961 162.482 246.119 158.636 242.852 155.915C239.586 153.075 236.091 151.182 232.367 150.236C228.643 149.171 225.017 148.638 221.489 148.638H189.15V278.022H252.358C250.986 282.992 249.941 288.198 249.222 293.641C248.504 299.083 247.981 304.171 247.654 308.904C247.262 314.465 247.034 319.908 246.968 325.232L243.734 326.297C243.016 319.908 242.166 314.583 241.187 310.324C240.207 305.946 238.867 302.337 237.169 299.497C235.535 296.658 233.445 294.469 230.897 292.931C228.414 291.392 225.278 290.268 221.489 289.558C217.7 288.849 213.159 288.434 207.867 288.316C202.575 288.198 196.336 288.139 189.15 288.139V412.908C189.15 415.511 188.594 418.41 187.484 421.605C186.373 424.918 184.936 428.527 183.172 432.431C181.408 436.336 179.382 440.477 177.096 444.855C174.875 449.351 172.621 454.025 170.334 458.876C168.047 463.845 165.826 468.992 163.67 474.317C161.514 479.76 159.652 485.321 158.084 491V168.161C158.084 165.795 157.823 163.251 157.3 160.529C156.843 157.808 155.961 155.323 154.654 153.075C153.413 150.709 151.682 148.757 149.46 147.218C147.239 145.68 144.365 144.911 140.837 144.911V138.344Z" fill="url(#paint3_linear_11_3)" shape-rendering="crispEdges"/>
</g>
<g filter="url(#filter2_ddd_11_3)">
<path fill-rule="evenodd" clip-rule="evenodd" d="M261.962 153.608C262.57 149 263.39 144.646 264.419 140.547C264.606 139.805 264.8 139.07 265 138.344H140.837V144.911C144.365 144.911 147.239 145.68 149.46 147.218C151.682 148.757 153.413 150.709 154.654 153.075C155.961 155.323 156.843 157.808 157.3 160.529C157.823 163.251 158.084 165.795 158.084 168.161V491C158.472 489.596 158.877 488.2 159.301 486.811C160.59 482.579 162.047 478.414 163.67 474.317C165.826 468.992 168.047 463.845 170.334 458.876C172.621 454.025 174.875 449.351 177.096 444.855C179.382 440.477 181.408 436.336 183.172 432.431C184.936 428.527 186.373 424.918 187.484 421.605C188.594 418.41 189.15 415.511 189.15 412.908V288.139C189.558 288.139 189.964 288.139 190.366 288.139C197.042 288.146 202.876 288.205 207.867 288.316C213.159 288.434 217.7 288.849 221.489 289.558C225.278 290.268 228.414 291.392 230.897 292.931C233.445 294.469 235.535 296.658 237.169 299.497C238.867 302.337 240.207 305.946 241.187 310.324C242.166 314.583 243.016 319.908 243.734 326.297L246.968 325.232C247.034 319.908 247.262 314.465 247.654 308.904C247.981 304.171 248.504 299.083 249.222 293.641C249.836 288.996 250.687 284.525 251.775 280.225C251.963 279.486 252.157 278.751 252.358 278.022H189.15V148.638H221.489C225.017 148.638 228.643 149.171 232.367 150.236C236.091 151.182 239.586 153.075 242.852 155.915C246.119 158.636 248.961 162.482 251.378 167.451C253.796 172.421 255.462 178.869 256.376 186.797L259.806 185.732C259.806 185.259 259.839 183.425 259.904 180.23C259.969 177.035 260.165 173.131 260.492 168.516C260.819 163.902 261.309 158.932 261.962 153.608ZM258.616 183.866C258.633 182.939 258.657 181.696 258.689 180.148C258.756 176.865 258.956 172.89 259.286 168.236C259.618 163.545 260.115 158.509 260.775 153.13L260.777 153.113L260.779 153.095C261.36 148.696 262.129 144.512 263.087 140.547H142.053V142.739C145.134 142.899 147.76 143.683 149.895 145.161C152.222 146.772 154.117 148.868 155.515 151.517C156.932 153.967 157.931 156.743 158.457 159.846C159.01 162.737 159.301 165.514 159.301 168.161V482.381C160.336 479.225 161.463 476.109 162.682 473.033L162.685 473.023L162.689 473.014C164.86 467.654 167.097 462.471 169.4 457.466L169.404 457.456L169.409 457.446C171.701 452.582 173.961 447.896 176.189 443.386L176.201 443.363L176.212 443.341C178.482 438.994 180.488 434.893 182.23 431.036C183.968 427.189 185.37 423.665 186.444 420.461L186.449 420.446L186.454 420.431C187.495 417.438 187.933 414.949 187.933 412.908V285.936H189.15C196.339 285.936 202.584 285.995 207.882 286.113C213.198 286.232 217.777 286.648 221.614 287.367C225.455 288.087 228.688 289.235 231.286 290.843C233.967 292.463 236.219 294.798 238.002 297.894C239.843 300.976 241.275 304.858 242.312 309.486C243.218 313.427 244.005 318.188 244.68 323.747L245.78 323.384C245.872 318.556 246.095 313.636 246.448 308.627C246.781 303.803 247.312 298.635 248.039 293.128C248.627 288.675 249.428 284.373 250.441 280.225H187.933V146.435H221.489C225.081 146.435 228.767 146.977 232.546 148.057C236.382 149.033 239.992 150.987 243.37 153.921C246.79 156.773 249.766 160.803 252.291 165.995C254.655 170.854 256.315 176.975 257.307 184.273L258.616 183.866Z" fill="#3D3C3C"/>
</g>
<g filter="url(#filter3_ddd_11_3)">
<path d="M176.163 138.344H52C53.3066 143.077 54.3193 148.165 55.0379 153.608C55.6913 158.932 56.1812 163.902 56.5079 168.516C56.8346 173.131 57.0306 177.035 57.0959 180.23C57.1612 183.425 57.1939 185.259 57.1939 185.732L60.6238 186.797C61.5385 178.869 63.2044 172.421 65.6217 167.451C68.039 162.482 70.8809 158.636 74.1475 155.915C77.4141 153.075 80.9094 151.182 84.6333 150.236C88.3572 149.171 91.9832 148.638 95.5111 148.638H127.85V278.022H64.6417C66.0137 282.992 67.059 288.198 67.7777 293.641C68.4963 299.083 69.019 304.171 69.3456 308.904C69.7376 314.465 69.9663 319.908 70.0316 325.232L73.2655 326.297C73.9842 319.908 74.8335 314.583 75.8135 310.324C76.7935 305.946 78.1328 302.337 79.8314 299.497C81.4647 296.658 83.5553 294.469 86.1033 292.931C88.5859 291.392 91.7218 290.268 95.5111 289.558C99.3003 288.849 103.841 288.434 109.133 288.316C114.425 288.198 120.664 288.139 127.85 288.139V412.908C127.85 415.511 128.406 418.41 129.516 421.605C130.627 424.918 132.064 428.527 133.828 432.431C135.592 436.336 137.618 440.477 139.904 444.855C142.125 449.351 144.379 454.025 146.666 458.876C148.953 463.845 151.174 468.992 153.33 474.317C155.486 479.76 157.348 485.321 158.916 491V168.161C158.916 165.795 159.177 163.251 159.7 160.529C160.157 157.808 161.039 155.323 162.346 153.075C163.587 150.709 165.318 148.757 167.54 147.218C169.761 145.68 172.635 144.911 176.163 144.911V138.344Z" fill="url(#paint4_linear_11_3)" shape-rendering="crispEdges"/>
<path d="M176.163 138.344H52C53.3066 143.077 54.3193 148.165 55.0379 153.608C55.6913 158.932 56.1812 163.902 56.5079 168.516C56.8346 173.131 57.0306 177.035 57.0959 180.23C57.1612 183.425 57.1939 185.259 57.1939 185.732L60.6238 186.797C61.5385 178.869 63.2044 172.421 65.6217 167.451C68.039 162.482 70.8809 158.636 74.1475 155.915C77.4141 153.075 80.9094 151.182 84.6333 150.236C88.3572 149.171 91.9832 148.638 95.5111 148.638H127.85V278.022H64.6417C66.0137 282.992 67.059 288.198 67.7777 293.641C68.4963 299.083 69.019 304.171 69.3456 308.904C69.7376 314.465 69.9663 319.908 70.0316 325.232L73.2655 326.297C73.9842 319.908 74.8335 314.583 75.8135 310.324C76.7935 305.946 78.1328 302.337 79.8314 299.497C81.4647 296.658 83.5553 294.469 86.1033 292.931C88.5859 291.392 91.7218 290.268 95.5111 289.558C99.3003 288.849 103.841 288.434 109.133 288.316C114.425 288.198 120.664 288.139 127.85 288.139V412.908C127.85 415.511 128.406 418.41 129.516 421.605C130.627 424.918 132.064 428.527 133.828 432.431C135.592 436.336 137.618 440.477 139.904 444.855C142.125 449.351 144.379 454.025 146.666 458.876C148.953 463.845 151.174 468.992 153.33 474.317C155.486 479.76 157.348 485.321 158.916 491V168.161C158.916 165.795 159.177 163.251 159.7 160.529C160.157 157.808 161.039 155.323 162.346 153.075C163.587 150.709 165.318 148.757 167.54 147.218C169.761 145.68 172.635 144.911 176.163 144.911V138.344Z" fill="#631F1F" fill-opacity="0.2" shape-rendering="crispEdges"/>
<path d="M175.663 144.416V138.844H52.6544C53.8847 143.421 54.8442 148.321 55.5337 153.542L55.5342 153.547C56.1884 158.878 56.6793 163.857 57.0067 168.481C57.3337 173.1 57.5302 177.014 57.5958 180.22C57.6498 182.861 57.6816 184.577 57.691 185.363L60.1979 186.141C61.1305 178.452 62.7835 172.143 65.1721 167.233C67.6105 162.22 70.4904 158.312 73.8235 155.534C77.1383 152.653 80.6984 150.721 84.503 149.753C88.2648 148.678 91.9346 148.138 95.5111 148.138H127.85C128.127 148.138 128.35 148.362 128.35 148.638V278.022C128.35 278.298 128.127 278.522 127.85 278.522H65.2964C66.5901 283.324 67.5823 288.341 68.2734 293.575C68.9931 299.026 69.5169 304.124 69.8444 308.869C70.2283 314.315 70.4558 319.648 70.527 324.869L72.8382 325.63C73.5432 319.5 74.372 314.359 75.3261 310.212C76.3134 305.803 77.6677 302.142 79.4001 299.245C81.0706 296.341 83.2173 294.089 85.8428 292.504C88.3913 290.925 91.5889 289.785 95.419 289.067C99.2427 288.351 103.812 287.935 109.122 287.816C114.418 287.698 120.661 287.639 127.85 287.639C128.127 287.639 128.35 287.863 128.35 288.139V412.908C128.35 415.441 128.891 418.284 129.989 421.441L129.99 421.446C131.095 424.74 132.525 428.333 134.284 432.225C136.043 436.12 138.064 440.253 140.347 444.623L140.352 444.633C142.575 449.132 144.83 453.809 147.118 458.663L147.12 458.667C149.41 463.644 151.635 468.798 153.793 474.129L153.795 474.133C155.524 478.497 157.064 482.937 158.416 487.453V168.161C158.416 165.76 158.681 163.186 159.208 160.441C159.674 157.67 160.573 155.133 161.908 152.833C163.187 150.399 164.971 148.389 167.255 146.807C169.473 145.271 172.288 144.486 175.663 144.416Z" stroke="black" stroke-linejoin="round" shape-rendering="crispEdges"/>
</g>
<g filter="url(#filter4_ddd_11_3)">
<path fill-rule="evenodd" clip-rule="evenodd" d="M55.0379 153.608C54.4295 149 53.6104 144.646 52.5805 140.547C52.3939 139.805 52.2004 139.07 52 138.344H176.163V144.911C172.635 144.911 169.761 145.68 167.54 147.218C165.318 148.757 163.587 150.709 162.346 153.075C161.039 155.323 160.157 157.808 159.7 160.529C159.177 163.251 158.916 165.795 158.916 168.161V491C158.528 489.596 158.123 488.2 157.699 486.811C156.41 482.579 154.953 478.414 153.33 474.317C151.174 468.992 148.953 463.845 146.666 458.876C144.379 454.025 142.125 449.351 139.904 444.855C137.618 440.477 135.592 436.336 133.828 432.431C132.064 428.527 130.627 424.918 129.516 421.605C128.406 418.41 127.85 415.511 127.85 412.908V288.139C127.442 288.139 127.036 288.139 126.634 288.139C119.958 288.146 114.124 288.205 109.133 288.316C103.841 288.434 99.3003 288.849 95.5111 289.558C91.7218 290.268 88.5859 291.392 86.1033 292.931C83.5553 294.469 81.4647 296.658 79.8314 299.497C78.1328 302.337 76.7935 305.946 75.8135 310.324C74.8335 314.583 73.9842 319.908 73.2655 326.297L70.0316 325.232C69.9663 319.908 69.7376 314.465 69.3456 308.904C69.019 304.171 68.4963 299.083 67.7777 293.641C67.1645 288.996 66.3134 284.525 65.2246 280.225C65.0373 279.486 64.8431 278.751 64.6417 278.022H127.85V148.638H95.5111C91.9832 148.638 88.3572 149.171 84.6333 150.236C80.9094 151.182 77.4141 153.075 74.1475 155.915C70.8809 158.636 68.039 162.482 65.6217 167.451C63.2044 172.421 61.5385 178.869 60.6238 186.797L57.1939 185.732C57.1939 185.259 57.1612 183.425 57.0959 180.23C57.0306 177.035 56.8346 173.131 56.5079 168.516C56.1812 163.902 55.6913 158.932 55.0379 153.608ZM58.384 183.866C58.3674 182.939 58.3431 181.696 58.3114 180.148C58.2443 176.865 58.0438 172.89 57.7144 168.236C57.3823 163.545 56.8853 158.509 56.2253 153.13L56.2232 153.113L56.2209 153.095C55.64 148.696 54.871 144.512 53.9125 140.547H174.947V142.739C171.866 142.899 169.24 143.683 167.105 145.161C164.778 146.772 162.883 148.868 161.485 151.517C160.068 153.967 159.069 156.743 158.543 159.846C157.99 162.737 157.699 165.514 157.699 168.161V482.381C156.664 479.225 155.537 476.109 154.318 473.033L154.315 473.023L154.311 473.014C152.14 467.654 149.903 462.471 147.6 457.466L147.596 457.456L147.591 457.446C145.299 452.582 143.039 447.896 140.811 443.386L140.799 443.363L140.788 443.341C138.518 438.994 136.512 434.893 134.77 431.036C133.032 427.189 131.63 423.665 130.556 420.461L130.551 420.446L130.546 420.431C129.505 417.438 129.067 414.949 129.067 412.908V285.936H127.85C120.661 285.936 114.416 285.995 109.118 286.113C103.802 286.232 99.2227 286.648 95.3859 287.367C91.5446 288.087 88.3124 289.235 85.7141 290.843C83.0328 292.463 80.7807 294.798 78.9975 297.894C77.1568 300.976 75.7253 304.858 74.6885 309.486C73.7824 313.427 72.9955 318.188 72.3204 323.747L71.2196 323.384C71.128 318.556 70.9054 313.636 70.5524 308.627C70.2193 303.803 69.6878 298.635 68.9607 293.128C68.3727 288.675 67.572 284.373 66.5587 280.225H129.067V146.435H95.5111C91.9188 146.435 88.2329 146.977 84.4541 148.057C80.6181 149.033 77.0082 150.987 73.6301 153.921C70.2103 156.773 67.2344 160.803 64.709 165.995C62.3453 170.854 60.685 176.975 59.6933 184.273L58.384 183.866Z" fill="url(#paint5_angular_11_3)" shape-rendering="crispEdges"/>
</g>
<defs>
<filter id="filter0_dddd_11_3" x="130.401" y="15" width="55.7517" height="193.097" filterUnits="userSpaceOnUse" color-interpolation-filters="sRGB">
<feFlood flood-opacity="0" result="BackgroundImageFix"/>
<feColorMatrix in="SourceAlpha" type="matrix" values="0 0 0 0 0 0 0 0 0 0 0 0 0 0 0 0 0 0 127 0" result="hardAlpha"/>
<feOffset dy="4"/>
<feGaussianBlur stdDeviation="2"/>
<feComposite in2="hardAlpha" operator="out"/>
<feColorMatrix type="matrix" values="0 0 0 0 0 0 0 0 0 0 0 0 0 0 0 0 0 0 0.25 0"/>
<feBlend mode="normal" in2="BackgroundImageFix" result="effect1_dropShadow_11_3"/>
<feColorMatrix in="SourceAlpha" type="matrix" values="0 0 0 0 0 0 0 0 0 0 0 0 0 0 0 0 0 0 127 0" result="hardAlpha"/>
<feOffset dy="4"/>
<feGaussianBlur stdDeviation="2"/>
<feComposite in2="hardAlpha" operator="out"/>
<feColorMatrix type="matrix" values="0 0 0 0 0 0 0 0 0 0 0 0 0 0 0 0 0 0 0.25 0"/>
<feBlend mode="normal" in2="effect1_dropShadow_11_3" result="effect2_dropShadow_11_3"/>
<feColorMatrix in="SourceAlpha" type="matrix" values="0 0 0 0 0 0 0 0 0 0 0 0 0 0 0 0 0 0 127 0" result="hardAlpha"/>
<feOffset dy="4"/>
<feGaussianBlur stdDeviation="2"/>
<feComposite in2="hardAlpha" operator="out"/>
<feColorMatrix type="matrix" values="0 0 0 0 0 0 0 0 0 0 0 0 0 0 0 0 0 0 0.25 0"/>
<feBlend mode="normal" in2="effect2_dropShadow_11_3" result="effect3_dropShadow_11_3"/>
<feColorMatrix in="SourceAlpha" type="matrix" values="0 0 0 0 0 0 0 0 0 0 0 0 0 0 0 0 0 0 127 0" result="hardAlpha"/>
<feOffset dy="4"/>
<feGaussianBlur stdDeviation="2"/>
<feComposite in2="hardAlpha" operator="out"/>
<feColorMatrix type="matrix" values="0 0 0 0 0 0 0 0 0 0 0 0 0 0 0 0 0 0 0.25 0"/>
<feBlend mode="normal" in2="effect3_dropShadow_11_3" result="effect4_dropShadow_11_3"/>
<feBlend mode="normal" in="SourceGraphic" in2="effect4_dropShadow_11_3" result="shape"/>
</filter>
<filter id="filter1_ddd_11_3" x="136.837" y="138.344" width="132.163" height="360.656" filterUnits="userSpaceOnUse" color-interpolation-filters="sRGB">
<feFlood flood-opacity="0" result="BackgroundImageFix"/>
<feColorMatrix in="SourceAlpha" type="matrix" values="0 0 0 0 0 0 0 0 0 0 0 0 0 0 0 0 0 0 127 0" result="hardAlpha"/>
<feOffset dy="4"/>
<feGaussianBlur stdDeviation="2"/>
<feComposite in2="hardAlpha" operator="out"/>
<feColorMatrix type="matrix" values="0 0 0 0 0 0 0 0 0 0 0 0 0 0 0 0 0 0 0.25 0"/>
<feBlend mode="normal" in2="BackgroundImageFix" result="effect1_dropShadow_11_3"/>
<feColorMatrix in="SourceAlpha" type="matrix" values="0 0 0 0 0 0 0 0 0 0 0 0 0 0 0 0 0 0 127 0" result="hardAlpha"/>
<feOffset dy="4"/>
<feGaussianBlur stdDeviation="2"/>
<feComposite in2="hardAlpha" operator="out"/>
<feColorMatrix type="matrix" values="0 0 0 0 0 0 0 0 0 0 0 0 0 0 0 0 0 0 0.25 0"/>
<feBlend mode="normal" in2="effect1_dropShadow_11_3" result="effect2_dropShadow_11_3"/>
<feColorMatrix in="SourceAlpha" type="matrix" values="0 0 0 0 0 0 0 0 0 0 0 0 0 0 0 0 0 0 127 0" result="hardAlpha"/>
<feOffset dy="4"/>
<feGaussianBlur stdDeviation="2"/>
<feComposite in2="hardAlpha" operator="out"/>
<feColorMatrix type="matrix" values="0 0 0 0 0 0 0 0 0 0 0 0 0 0 0 0 0 0 0.25 0"/>
<feBlend mode="normal" in2="effect2_dropShadow_11_3" result="effect3_dropShadow_11_3"/>
<feBlend mode="normal" in="SourceGraphic" in2="effect3_dropShadow_11_3" result="shape"/>
</filter>
<filter id="filter2_ddd_11_3" x="136.837" y="138.344" width="132.163" height="360.656" filterUnits="userSpaceOnUse" color-interpolation-filters="sRGB">
<feFlood flood-opacity="0" result="BackgroundImageFix"/>
<feColorMatrix in="SourceAlpha" type="matrix" values="0 0 0 0 0 0 0 0 0 0 0 0 0 0 0 0 0 0 127 0" result="hardAlpha"/>
<feOffset dy="4"/>
<feGaussianBlur stdDeviation="2"/>
<feComposite in2="hardAlpha" operator="out"/>
<feColorMatrix type="matrix" values="0 0 0 0 0 0 0 0 0 0 0 0 0 0 0 0 0 0 0.25 0"/>
<feBlend mode="normal" in2="BackgroundImageFix" result="effect1_dropShadow_11_3"/>
<feColorMatrix in="SourceAlpha" type="matrix" values="0 0 0 0 0 0 0 0 0 0 0 0 0 0 0 0 0 0 127 0" result="hardAlpha"/>
<feOffset dy="4"/>
<feGaussianBlur stdDeviation="2"/>
<feComposite in2="hardAlpha" operator="out"/>
<feColorMatrix type="matrix" values="0 0 0 0 0 0 0 0 0 0 0 0 0 0 0 0 0 0 0.25 0"/>
<feBlend mode="normal" in2="effect1_dropShadow_11_3" result="effect2_dropShadow_11_3"/>
<feColorMatrix in="SourceAlpha" type="matrix" values="0 0 0 0 0 0 0 0 0 0 0 0 0 0 0 0 0 0 127 0" result="hardAlpha"/>
<feOffset dy="4"/>
<feGaussianBlur stdDeviation="2"/>
<feComposite in2="hardAlpha" operator="out"/>
<feColorMatrix type="matrix" values="0 0 0 0 0 0 0 0 0 0 0 0 0 0 0 0 0 0 0.25 0"/>
<feBlend mode="normal" in2="effect2_dropShadow_11_3" result="effect3_dropShadow_11_3"/>
<feBlend mode="normal" in="SourceGraphic" in2="effect3_dropShadow_11_3" result="shape"/>
</filter>
<filter id="filter3_ddd_11_3" x="48" y="138.344" width="132.163" height="360.656" filterUnits="userSpaceOnUse" color-interpolation-filters="sRGB">
<feFlood flood-opacity="0" result="BackgroundImageFix"/>
<feColorMatrix in="SourceAlpha" type="matrix" values="0 0 0 0 0 0 0 0 0 0 0 0 0 0 0 0 0 0 127 0" result="hardAlpha"/>
<feOffset dy="4"/>
<feGaussianBlur stdDeviation="2"/>
<feComposite in2="hardAlpha" operator="out"/>
<feColorMatrix type="matrix" values="0 0 0 0 0 0 0 0 0 0 0 0 0 0 0 0 0 0 0.25 0"/>
<feBlend mode="normal" in2="BackgroundImageFix" result="effect1_dropShadow_11_3"/>
<feColorMatrix in="SourceAlpha" type="matrix" values="0 0 0 0 0 0 0 0 0 0 0 0 0 0 0 0 0 0 127 0" result="hardAlpha"/>
<feOffset dy="4"/>
<feGaussianBlur stdDeviation="2"/>
<feComposite in2="hardAlpha" operator="out"/>
<feColorMatrix type="matrix" values="0 0 0 0 0 0 0 0 0 0 0 0 0 0 0 0 0 0 0.25 0"/>
<feBlend mode="normal" in2="effect1_dropShadow_11_3" result="effect2_dropShadow_11_3"/>
<feColorMatrix in="SourceAlpha" type="matrix" values="0 0 0 0 0 0 0 0 0 0 0 0 0 0 0 0 0 0 127 0" result="hardAlpha"/>
<feOffset dy="4"/>
<feGaussianBlur stdDeviation="2"/>
<feComposite in2="hardAlpha" operator="out"/>
<feColorMatrix type="matrix" values="0 0 0 0 0 0 0 0 0 0 0 0 0 0 0 0 0 0 0.25 0"/>
<feBlend mode="normal" in2="effect2_dropShadow_11_3" result="effect3_dropShadow_11_3"/>
<feBlend mode="normal" in="SourceGraphic" in2="effect3_dropShadow_11_3" result="shape"/>
</filter>
<filter id="filter4_ddd_11_3" x="48" y="138.344" width="132.163" height="360.656" filterUnits="userSpaceOnUse" color-interpolation-filters="sRGB">
<feFlood flood-opacity="0" result="BackgroundImageFix"/>
<feColorMatrix in="SourceAlpha" type="matrix" values="0 0 0 0 0 0 0 0 0 0 0 0 0 0 0 0 0 0 127 0" result="hardAlpha"/>
<feOffset dy="4"/>
<feGaussianBlur stdDeviation="2"/>
<feComposite in2="hardAlpha" operator="out"/>
<feColorMatrix type="matrix" values="0 0 0 0 0 0 0 0 0 0 0 0 0 0 0 0 0 0 0.25 0"/>
<feBlend mode="normal" in2="BackgroundImageFix" result="effect1_dropShadow_11_3"/>
<feColorMatrix in="SourceAlpha" type="matrix" values="0 0 0 0 0 0 0 0 0 0 0 0 0 0 0 0 0 0 127 0" result="hardAlpha"/>
<feOffset dy="4"/>
<feGaussianBlur stdDeviation="2"/>
<feComposite in2="hardAlpha" operator="out"/>
<feColorMatrix type="matrix" values="0 0 0 0 0 0 0 0 0 0 0 0 0 0 0 0 0 0 0.25 0"/>
<feBlend mode="normal" in2="effect1_dropShadow_11_3" result="effect2_dropShadow_11_3"/>
<feColorMatrix in="SourceAlpha" type="matrix" values="0 0 0 0 0 0 0 0 0 0 0 0 0 0 0 0 0 0 127 0" result="hardAlpha"/>
<feOffset dy="4"/>
<feGaussianBlur stdDeviation="2"/>
<feComposite in2="hardAlpha" operator="out"/>
<feColorMatrix type="matrix" values="0 0 0 0 0 0 0 0 0 0 0 0 0 0 0 0 0 0 0.25 0"/>
<feBlend mode="normal" in2="effect2_dropShadow_11_3" result="effect3_dropShadow_11_3"/>
<feBlend mode="normal" in="SourceGraphic" in2="effect3_dropShadow_11_3" result="shape"/>
</filter>
<radialGradient id="paint0_diamond_11_3" cx="0" cy="0" r="1" gradientUnits="userSpaceOnUse" gradientTransform="translate(159.5 250.5) rotate(90) scale(250.5 159.5)">
<stop stop-color="white" stop-opacity="0"/>
<stop offset="0.0001" stop-color="white"/>
</radialGradient>
<radialGradient id="paint1_angular_11_3" cx="0" cy="0" r="1" gradientUnits="userSpaceOnUse" gradientTransform="translate(158.5 113.082) rotate(90) scale(178.611 30.5851)">
<stop stop-color="#5A1E1E"/>
<stop offset="1" stop-color="#6A6A6A" stop-opacity="0"/>
</radialGradient>
<radialGradient id="paint2_angular_11_3" cx="0" cy="0" r="1" gradientUnits="userSpaceOnUse" gradientTransform="translate(158.5 -22.9488) rotate(90) scale(310.061 53.0946)">
<stop offset="0.439459"/>
<stop offset="1" stop-opacity="0"/>
</radialGradient>
<linearGradient id="paint3_linear_11_3" x1="201.377" y1="34.8779" x2="201.377" y2="512.912" gradientUnits="userSpaceOnUse">
<stop offset="0.402795" stop-color="#634545"/>
<stop offset="1" stop-color="white" stop-opacity="0"/>
</linearGradient>
<linearGradient id="paint4_linear_11_3" x1="105.588" y1="34.8779" x2="105.588" y2="512.912" gradientUnits="userSpaceOnUse">
<stop offset="0.436214"/>
<stop offset="1" stop-opacity="0"/>
</linearGradient>
<radialGradient id="paint5_angular_11_3" cx="0" cy="0" r="1" gradientUnits="userSpaceOnUse" gradientTransform="translate(140.5 302.5) rotate(90) scale(225.5 130.752)">
<stop stop-color="#7C7C7C"/>
<stop offset="0.0729608" stop-color="#7C7C7C" stop-opacity="0"/>
</radialGradient>
</defs>
</svg>
